<svg xmlns="http://www.w3.org/2000/svg" width="38.87" height="27.888" viewBox="0 0 38.87 27.888"><g transform="translate(0 -58.303)"><g transform="translate(0 58.303)"><path d="M38.116,60.624H35.555V59.75A.753.753,0,0,0,35.012,59,21.223,21.223,0,0,0,29.58,58.3c-3.014,0-7.12.678-10.156,3.767C16.41,58.951,12.273,58.3,9.267,58.3A21.223,21.223,0,0,0,3.835,59a.753.753,0,0,0-.542.753v.866H.753A.753.753,0,0,0,0,61.37V85.435a.752.752,0,0,0,1.123.655c.075-.038,7.61-4.159,18.128-1.507h.181a.753.753,0,0,0,.181,0C30.16,81.909,37.694,86.022,37.74,86.09a.753.753,0,0,0,1.13-.648V61.377A.753.753,0,0,0,38.116,60.624ZM1.507,84.237V62.131h1.8v18.9a.753.753,0,0,0,.866.753A32.971,32.971,0,0,1,8.883,81.4a19.544,19.544,0,0,1,6.434.972A27.7,27.7,0,0,0,1.507,84.237ZM8.883,79.9a33.15,33.15,0,0,0-4.1.264V60.345a20.78,20.78,0,0,1,4.468-.5c2.818,0,6.706.648,9.4,3.692l.023,18.768C17.111,81.283,14.052,79.9,8.883,79.9Zm11.3-16.365c2.7-3.014,6.585-3.692,9.4-3.692a20.871,20.871,0,0,1,4.468.5V80.168a33.141,33.141,0,0,0-4.076-.271c-5.138,0-8.2,1.379-9.795,2.4Zm17.171,20.7a27.7,27.7,0,0,0-13.841-1.861,19.59,19.59,0,0,1,6.464-.972,32.962,32.962,0,0,1,4.739.369.753.753,0,0,0,.866-.753V62.131h1.8Z" transform="translate(0 -58.303)" fill="#fff"/></g></g></svg>