<svg xmlns="http://www.w3.org/2000/svg" width="17.472" height="16.534" viewBox="0 0 17.472 16.534">
  <g id="pi-mathematical-constant-symbol" transform="translate(0 -2.513)">
    <g id="Group_253" data-name="Group 253" transform="translate(0 2.513)">
      <path id="Path_212" data-name="Path 212" d="M13.589,15.915c-2.5-1.952-.734-9.98-.734-9.98h3.051A1.575,1.575,0,0,0,17.472,4.24c0-1.839-1.525-1.726-1.525-1.726H4.714c-1.844,0-3.508,2.111-4.463,3.621C-.257,6.941.03,7.167.9,6.787,3.965,5.447,4.828,5.93,4.828,5.93c.216,1.032.288,5.691-.5,7.53-.8,1.731-2.265,3.924-.108,5.213,1.685.955,3.451-1.007,3.277-4.345-.082-1.767-.221-8.392-.221-8.392h2.815a48.061,48.061,0,0,0-.067,9.425c.519,5.213,6.184,4.2,7.242,1.248a2.722,2.722,0,0,0,.005-1.916c-.36-.878-.961-.924-.894-.514a2.261,2.261,0,0,1-.026.75A1.9,1.9,0,0,1,13.589,15.915Z" transform="translate(0 -2.513)" fill="#41ab3c"/>
    </g>
  </g>
</svg>
