<svg xmlns="http://www.w3.org/2000/svg" width="60" height="59" viewBox="0 0 60 59"><path d="M174,59a30.258,30.258,0,0,1-11.677-2.318,29.933,29.933,0,0,1-9.536-6.321,29.39,29.39,0,0,1-6.429-9.378,29.142,29.142,0,0,1,0-22.965,29.39,29.39,0,0,1,6.429-9.378,29.932,29.932,0,0,1,9.536-6.321,30.568,30.568,0,0,1,23.355,0,29.932,29.932,0,0,1,9.536,6.321,29.39,29.39,0,0,1,6.429,9.378,29.142,29.142,0,0,1,0,22.965,29.391,29.391,0,0,1-6.429,9.378,29.933,29.933,0,0,1-9.536,6.321A30.258,30.258,0,0,1,174,59Zm-3.259-28.225V43.824a18.981,18.981,0,0,0,5.835,0V30.775h4.35l.828-5.4h-5.178v-3.5a2.7,2.7,0,0,1,3.042-2.916h2.355v-4.6a29.131,29.131,0,0,0-4.18-.364,7.043,7.043,0,0,0-5.125,1.878,7.421,7.421,0,0,0-1.927,5.389v4.113H166v5.4Z" transform="translate(-144.001)" fill="#fff"/></svg>