<svg xmlns="http://www.w3.org/2000/svg" width="60" height="59" viewBox="0 0 60 59">
  <g id="in-oc" transform="translate(-1187 2528)">
    <ellipse id="Ellipse_80" data-name="Ellipse 80" cx="30" cy="29.5" rx="30" ry="29.5" transform="translate(1187 -2528)" fill="#8a3ab9"/>
    <g id="iconfinder_SocialMedia_Instagram-Outline_2959748" transform="translate(1186.41 -2528.59)">
      <path id="Path_74" data-name="Path 74" d="M36.635,17.545a7,7,0,0,1,7,7v12.09a7,7,0,0,1-7,7H24.545a7,7,0,0,1-7-7V24.545a7,7,0,0,1,7-7h12.09m0-2.545H24.545A9.573,9.573,0,0,0,15,24.545v12.09a9.573,9.573,0,0,0,9.545,9.545h12.09a9.573,9.573,0,0,0,9.545-9.545V24.545A9.573,9.573,0,0,0,36.635,15Z" fill="#fff"/>
      <path id="Path_75" data-name="Path 75" d="M86.233,32a1.823,1.823,0,1,0,1.823,1.823A1.823,1.823,0,0,0,86.233,32Z" transform="translate(-47.327 -11.591)" fill="#fff"/>
      <path id="Path_76" data-name="Path 76" d="M46.794,41.015a5.625,5.625,0,1,1-5.622,5.623,5.625,5.625,0,0,1,5.622-5.623m0-2.545a8.17,8.17,0,1,0,5.786,2.386,8.17,8.17,0,0,0-5.786-2.386Z" transform="translate(-16.119 -16.003)" fill="#fff"/>
    </g>
  </g>
</svg>
