<svg xmlns="http://www.w3.org/2000/svg" width="43" height="42" viewBox="0 0 43 42">
  <g id="Group_178" data-name="Group 178" transform="translate(-827 -8912)">
    <ellipse id="Ellipse_52" data-name="Ellipse 52" cx="21.5" cy="21" rx="21.5" ry="21" transform="translate(827 8912)" fill="#fff"/>
    <g id="iconfinder_SocialMedia_Instagram-Outline_2959748" transform="translate(837.258 8922.258)">
      <path id="Path_74" data-name="Path 74" d="M30.4,16.812a4.983,4.983,0,0,1,4.983,4.983V30.4A4.983,4.983,0,0,1,30.4,35.384H21.795A4.983,4.983,0,0,1,16.812,30.4V21.795a4.983,4.983,0,0,1,4.983-4.983H30.4M30.4,15H21.795A6.815,6.815,0,0,0,15,21.795V30.4A6.815,6.815,0,0,0,21.795,37.2H30.4A6.815,6.815,0,0,0,37.2,30.4V21.795A6.815,6.815,0,0,0,30.4,15Z" transform="translate(-15 -15)" fill="#171f32"/>
      <path id="Path_75" data-name="Path 75" d="M85.708,32a1.3,1.3,0,1,0,1.3,1.3A1.3,1.3,0,0,0,85.708,32Z" transform="translate(-68.69 -28.15)" fill="#171f32"/>
      <path id="Path_76" data-name="Path 76" d="M44.445,40.282a4,4,0,1,1-4,4,4,4,0,0,1,4-4m0-1.812a5.816,5.816,0,1,0,4.119,1.7,5.816,5.816,0,0,0-4.119-1.7Z" transform="translate(-33.286 -33.154)" fill="#171f32"/>
    </g>
  </g>
</svg>
