<svg xmlns="http://www.w3.org/2000/svg" xmlns:xlink="http://www.w3.org/1999/xlink" viewBox="0 0 36.02 36.02"><defs><style>.cls-1{fill:url(#radial-gradient);}.cls-2{fill:url(#radial-gradient-2);}.cls-3{fill:#fff;}</style><radialGradient id="radial-gradient" cx="13.39" cy="389.51" r="44.9" gradientTransform="matrix(1, 0, 0, -1, 0, 425.55)" gradientUnits="userSpaceOnUse"><stop offset="0" stop-color="#fd5"/><stop offset="0.33" stop-color="#ff543f"/><stop offset="0.35" stop-color="#fc5245"/><stop offset="0.5" stop-color="#e64771"/><stop offset="0.64" stop-color="#d53e91"/><stop offset="0.76" stop-color="#cc39a4"/><stop offset="0.84" stop-color="#c837ab"/></radialGradient><radialGradient id="radial-gradient-2" cx="5.8" cy="265.12" r="29.81" gradientTransform="matrix(1, 0, 0, -0.67, 0, 176.2)" gradientUnits="userSpaceOnUse"><stop offset="0" stop-color="#4168c9"/><stop offset="1" stop-color="#4168c9" stop-opacity="0"/></radialGradient></defs><g id="Layer_2" data-name="Layer 2"><g id="Layer_1-2" data-name="Layer 1"><path class="cls-1" d="M28,36,8,36a8,8,0,0,1-8-8L0,8A8,8,0,0,1,8,0L28,0a8,8,0,0,1,8,8l0,20A8,8,0,0,1,28,36Z"/><path class="cls-2" d="M28,36,8,36a8,8,0,0,1-8-8L0,8A8,8,0,0,1,8,0L28,0a8,8,0,0,1,8,8l0,20A8,8,0,0,1,28,36Z"/><path class="cls-3" d="M18,25a7,7,0,1,1,7-7A7,7,0,0,1,18,25Zm0-12a5,5,0,1,0,5,5A5,5,0,0,0,18,13Z"/><circle class="cls-3" cx="25.51" cy="10.51" r="1.5"/><path class="cls-3" d="M24,31H12a7,7,0,0,1-7-7V12a7,7,0,0,1,7-7H24a7,7,0,0,1,7,7V24A7,7,0,0,1,24,31ZM12,7a5,5,0,0,0-5,5V24a5,5,0,0,0,5,5H24a5,5,0,0,0,5-5V12a5,5,0,0,0-5-5Z"/></g></g></svg>