<svg xmlns="http://www.w3.org/2000/svg" width="60" height="59" viewBox="0 0 60 59"><path d="M174,59a30.247,30.247,0,0,1-11.677-2.318,29.934,29.934,0,0,1-9.536-6.322,29.381,29.381,0,0,1-6.429-9.377,29.143,29.143,0,0,1,0-22.965,29.379,29.379,0,0,1,6.429-9.377,29.933,29.933,0,0,1,9.536-6.322,30.57,30.57,0,0,1,23.355,0,29.933,29.933,0,0,1,9.536,6.322,29.379,29.379,0,0,1,6.429,9.377,29.142,29.142,0,0,1,0,22.965,29.38,29.38,0,0,1-6.429,9.377,29.934,29.934,0,0,1-9.536,6.322A30.249,30.249,0,0,1,174,59Zm-6.044-44.59a9.572,9.572,0,0,0-9.545,9.544v12.09a9.574,9.574,0,0,0,9.545,9.545h12.09a9.575,9.575,0,0,0,9.545-9.545V23.955a9.574,9.574,0,0,0-9.545-9.544Zm12.09,28.634h-12.09a7.008,7.008,0,0,1-7-7V23.955a7.007,7.007,0,0,1,7-7h12.09a7.008,7.008,0,0,1,7,7v12.09A7.008,7.008,0,0,1,180.045,43.045ZM174.1,21.878h-.017a8.17,8.17,0,0,0,.017,16.34h.007a8.17,8.17,0,0,0-.006-16.34Zm8.214-2.059a1.823,1.823,0,1,0,1.823,1.823A1.825,1.825,0,0,0,182.317,19.819Zm-8.227,15.854h0a5.625,5.625,0,1,1,5.626-5.626A5.587,5.587,0,0,1,174.089,35.673Z" transform="translate(-144)" fill="#fff"/></svg>