<svg xmlns="http://www.w3.org/2000/svg" width="60" height="59" viewBox="0 0 60 59">
  <g id="li-oc" transform="translate(-1529 2528)">
    <ellipse id="Ellipse_81" data-name="Ellipse 81" cx="30" cy="29.5" rx="30" ry="29.5" transform="translate(1529 -2528)" fill="#0077b5"/>
    <g id="linkedin" transform="translate(1547 -2510)">
      <path id="Path_144" data-name="Path 144" d="M23.994,24H24V15.2c0-4.306-.927-7.623-5.961-7.623a5.226,5.226,0,0,0-4.707,2.587h-.07V7.976H8.489V24h4.97V16.065c0-2.089.4-4.109,2.983-4.109,2.549,0,2.587,2.384,2.587,4.243V24Z" fill="#fff"/>
      <path id="Path_145" data-name="Path 145" d="M.4,7.977H5.372V24H.4Z" fill="#fff"/>
      <path id="Path_146" data-name="Path 146" d="M2.882,0A2.9,2.9,0,1,0,5.764,2.882,2.883,2.883,0,0,0,2.882,0Z" fill="#fff"/>
    </g>
  </g>
</svg>
