<svg xmlns="http://www.w3.org/2000/svg" viewBox="0 0 36 36"><defs><style>.cls-1{fill:#0288d1;}.cls-2{fill:#fff;}</style></defs><g id="Layer_2" data-name="Layer 2"><g id="Layer_1-2" data-name="Layer 1"><path class="cls-1" d="M36,31a5,5,0,0,1-5,5H5a5,5,0,0,1-5-5V5A5,5,0,0,1,5,0H31a5,5,0,0,1,5,5Z"/><path class="cls-2" d="M6,13h5V30H6Zm2.48-2h0A2.39,2.39,0,0,1,6,8.5,2.4,2.4,0,0,1,8.51,6,2.4,2.4,0,0,1,11,8.5,2.41,2.41,0,0,1,8.48,11ZM30,30H25V20.9c0-2.2-1.23-3.7-3.19-3.7a2.89,2.89,0,0,0-2.71,2A7.43,7.43,0,0,0,19,21v9H14V13h5v2.62A5.05,5.05,0,0,1,23.74,13C27.32,13,30,15.25,30,20.27V30Z"/></g></g></svg>