<svg xmlns="http://www.w3.org/2000/svg" width="34" height="32.867" viewBox="0 0 34 32.867"><path d="M22.2,18.2a.57.57,0,0,1-.241-.054l-9.633-4.533a.567.567,0,0,1,0-1.026l9.633-4.533a.567.567,0,0,1,.483,0l9.633,4.533a.567.567,0,0,1,0,1.026l-9.633,4.533a.57.57,0,0,1-.241.054Zm-8.3-5.1,8.3,3.907L30.5,13.1,22.2,9.193Z" transform="translate(-5.2 -3.467)" fill="#fff"/><path d="M24.367,27.22a.568.568,0,0,1-.253-.059l-6.8-3.4A.567.567,0,0,1,17,23.253V18.92a.567.567,0,0,1,.808-.513l6.559,3.087,6.559-3.087a.567.567,0,0,1,.808.513v4.333a.567.567,0,0,1-.313.507l-6.8,3.4a.568.568,0,0,1-.253.059ZM18.133,22.9l6.233,3.117L30.6,22.9v-3.09l-5.992,2.82a.567.567,0,0,1-.483,0l-5.992-2.82Z" transform="translate(-7.367 -7.953)" fill="#fff"/><path d="M39.2,17.133H29.567a.567.567,0,1,1,0-1.133H39.2a.567.567,0,1,1,0,1.133Z" transform="translate(-12.567 -6.933)" fill="#fff"/><path d="M46.567,22.233A.567.567,0,0,1,46,21.667v-5.1a.567.567,0,0,1,1.133,0v5.1A.567.567,0,0,1,46.567,22.233Z" transform="translate(-19.933 -6.933)" fill="#fff"/><path d="M29.567,17.4A.567.567,0,0,1,29,16.833V14.567a.567.567,0,1,1,1.133,0v2.267A.567.567,0,0,1,29.567,17.4Z" transform="translate(-12.567 -6.067)" fill="#fff"/><path d="M44.566,27.833a.567.567,0,0,1-.471-.881l1.133-1.7a.567.567,0,0,1,.943.629l-1.133,1.7A.566.566,0,0,1,44.566,27.833Z" transform="translate(-19.067 -10.833)" fill="#fff"/><path d="M47.7,27.833a.566.566,0,0,1-.472-.252l-1.133-1.7a.567.567,0,0,1,.943-.629l1.133,1.7a.567.567,0,0,1-.471.881Z" transform="translate(-19.933 -10.833)" fill="#fff"/><path d="M29.567,26.833A.567.567,0,0,1,29,26.267v-1.7a.567.567,0,1,1,1.133,0v1.7A.567.567,0,0,1,29.567,26.833Z" transform="translate(-12.567 -10.4)" fill="#fff"/><path d="M33.433,21.533H.567A.567.567,0,0,1,0,20.967V2.267A2.27,2.27,0,0,1,2.267,0H31.733A2.27,2.27,0,0,1,34,2.267v18.7A.567.567,0,0,1,33.433,21.533ZM1.133,20.4H32.867V2.267a1.135,1.135,0,0,0-1.134-1.134H2.267A1.135,1.135,0,0,0,1.133,2.267Z" transform="translate(0)" fill="#fff"/><path d="M31.733,41.667H2.267A2.27,2.27,0,0,1,0,39.4V36.567A.567.567,0,0,1,.567,36H33.433a.567.567,0,0,1,.567.567V39.4A2.27,2.27,0,0,1,31.733,41.667Zm-30.6-4.533V39.4a1.135,1.135,0,0,0,1.134,1.134H31.733A1.135,1.135,0,0,0,32.867,39.4V37.133Z" transform="translate(0 -15.6)" fill="#fff"/><path d="M29.967,41.133h-3.4a.567.567,0,1,1,0-1.133h3.4a.567.567,0,1,1,0,1.133Z" transform="translate(-11.267 -17.333)" fill="#fff"/><path d="M32.9,23.267H4.567A.567.567,0,0,1,4,22.7V4.567A.567.567,0,0,1,4.567,4H32.9a.567.567,0,0,1,.567.567V22.7A.567.567,0,0,1,32.9,23.267ZM5.133,22.133h27.2v-17H5.133Z" transform="translate(-1.733 -1.733)" fill="#fff"/><path d="M30.433,55.4H15.7a1.7,1.7,0,1,1,0-3.4H30.433a1.7,1.7,0,0,1,0,3.4ZM15.7,53.133a.567.567,0,1,0,0,1.133H30.433a.567.567,0,0,0,0-1.133Z" transform="translate(-6.067 -22.533)" fill="#fff"/><path d="M31.033,49.667H18.567a.567.567,0,0,1,0-1.133c1.88,0,2.833-1.334,2.833-3.967A.567.567,0,0,1,21.967,44h5.667a.567.567,0,0,1,.567.567c0,2.632.953,3.967,2.833,3.967a.567.567,0,0,1,0,1.133Zm-9.706-1.133h6.947a5.422,5.422,0,0,1-1.191-3.4H22.518A5.426,5.426,0,0,1,21.327,48.533Z" transform="translate(-7.8 -19.067)" fill="#fff"/></svg>