<?xml version="1.0" encoding="utf-8"?>
<!-- Generator: Adobe Illustrator 22.1.0, SVG Export Plug-In . SVG Version: 6.00 Build 0)  -->
<svg version="1.1" id="Layer_1" xmlns="http://www.w3.org/2000/svg" xmlns:xlink="http://www.w3.org/1999/xlink" x="0px" y="0px"
	 viewBox="0 0 34 32.9" style="enable-background:new 0 0 34 32.9;" xml:space="preserve">
<style type="text/css">
	.st0{fill:#171F32;}
</style>
<path class="st0" d="M17,14.7c-0.1,0-0.2,0-0.2-0.1l-9.6-4.5C6.8,10,6.7,9.7,6.9,9.4C6.9,9.3,7,9.2,7.1,9.1l9.6-4.5
	c0.2-0.1,0.3-0.1,0.5,0l9.6,4.5c0.3,0.1,0.4,0.5,0.3,0.8c-0.1,0.1-0.2,0.2-0.3,0.3l-9.6,4.5C17.2,14.7,17.1,14.7,17,14.7L17,14.7z
	 M8.7,9.6l8.3,3.9l8.3-3.9L17,5.7L8.7,9.6z"/>
<path class="st0" d="M17,19.3c-0.1,0-0.2,0-0.3-0.1l-6.8-3.4c-0.2-0.1-0.3-0.3-0.3-0.5V11c0-0.3,0.3-0.6,0.6-0.6
	c0.1,0,0.2,0,0.2,0.1l6.6,3.1l6.6-3.1c0.3-0.1,0.6,0,0.8,0.3c0,0.1,0.1,0.2,0.1,0.2v4.3c0,0.2-0.1,0.4-0.3,0.5l-6.8,3.4
	C17.2,19.2,17.1,19.3,17,19.3L17,19.3z M10.8,14.9l6.2,3.1l6.2-3.1v-3.1l-6,2.8c-0.2,0.1-0.3,0.1-0.5,0l-6-2.8V14.9z"/>
<path class="st0" d="M26.6,10.2H17c-0.3,0-0.6-0.2-0.6-0.5c0-0.3,0.2-0.6,0.5-0.6c0,0,0,0,0,0h9.6c0.3,0,0.6,0.2,0.6,0.5
	S27,10.2,26.6,10.2C26.7,10.2,26.6,10.2,26.6,10.2z"/>
<path class="st0" d="M26.6,15.3c-0.3,0-0.6-0.3-0.6-0.6V9.6c0-0.3,0.3-0.6,0.6-0.5c0.3,0,0.5,0.2,0.5,0.5v5.1
	C27.2,15,26.9,15.3,26.6,15.3z"/>
<path class="st0" d="M17,11.3c-0.3,0-0.6-0.3-0.6-0.6V8.5c0-0.3,0.2-0.6,0.5-0.6c0.3,0,0.6,0.2,0.6,0.5c0,0,0,0,0,0v2.3
	C17.6,11.1,17.3,11.3,17,11.3z"/>
<path class="st0" d="M25.5,17c-0.3,0-0.6-0.3-0.6-0.6c0-0.1,0-0.2,0.1-0.3l1.1-1.7c0.2-0.3,0.5-0.3,0.8-0.1c0.2,0.2,0.3,0.5,0.2,0.8
	L26,16.7C25.9,16.9,25.7,17,25.5,17z"/>
<path class="st0" d="M27.8,17c-0.2,0-0.4-0.1-0.5-0.3L26.2,15c-0.2-0.3-0.1-0.6,0.2-0.8c0.3-0.2,0.6-0.1,0.8,0.2l1.1,1.7
	c0.2,0.3,0.1,0.6-0.2,0.8C28,17,27.9,17,27.8,17z"/>
<path class="st0" d="M17,16.4c-0.3,0-0.6-0.3-0.6-0.6v-1.7c0-0.3,0.2-0.6,0.5-0.6c0.3,0,0.6,0.2,0.6,0.5c0,0,0,0,0,0v1.7
	C17.6,16.2,17.3,16.4,17,16.4z"/>
<path class="st0" d="M33.4,21.5H0.6C0.3,21.5,0,21.3,0,21V2.3C0,1,1,0,2.3,0h29.5C33,0,34,1,34,2.3V21C34,21.3,33.7,21.5,33.4,21.5z
	 M1.1,20.4h31.7V2.3c0-0.6-0.5-1.1-1.1-1.1H2.3c-0.6,0-1.1,0.5-1.1,1.1V20.4z"/>
<path class="st0" d="M31.7,26.1H2.3c-1.3,0-2.3-1-2.3-2.3V21c0-0.3,0.3-0.6,0.6-0.6c0,0,0,0,0,0h32.9c0.3,0,0.6,0.3,0.6,0.6
	c0,0,0,0,0,0v2.8C34,25.1,33,26.1,31.7,26.1z M1.1,21.5v2.3c0,0.6,0.5,1.1,1.1,1.1h29.5c0.6,0,1.1-0.5,1.1-1.1v-2.3L1.1,21.5z"/>
<path class="st0" d="M18.7,23.8h-3.4c-0.3,0-0.6-0.2-0.6-0.5s0.2-0.6,0.5-0.6c0,0,0,0,0,0h3.4c0.3,0,0.6,0.2,0.6,0.5
	S19.1,23.8,18.7,23.8C18.7,23.8,18.7,23.8,18.7,23.8z"/>
<path class="st0" d="M31.2,21.5H2.8c-0.3,0-0.6-0.3-0.6-0.6V2.8c0-0.3,0.3-0.6,0.6-0.6h28.3c0.3,0,0.6,0.3,0.6,0.6c0,0,0,0,0,0V21
	C31.7,21.3,31.5,21.5,31.2,21.5L31.2,21.5z M3.4,20.4h27.2v-17H3.4V20.4z"/>
<path class="st0" d="M24.4,32.9H9.6c-0.9,0-1.7-0.8-1.7-1.7s0.8-1.7,1.7-1.7h14.7c0.9,0,1.7,0.8,1.7,1.7S25.3,32.9,24.4,32.9
	L24.4,32.9z M9.6,30.6c-0.3,0-0.6,0.2-0.6,0.5c0,0.3,0.2,0.6,0.5,0.6c0,0,0,0,0,0h14.7c0.3,0,0.6-0.3,0.5-0.6c0-0.3-0.2-0.5-0.5-0.5
	H9.6z"/>
<path class="st0" d="M23.2,30.6H10.8c-0.3,0-0.6-0.3-0.5-0.6c0-0.3,0.2-0.5,0.5-0.5c1.9,0,2.8-1.3,2.8-4c0-0.3,0.3-0.6,0.6-0.6l0,0
	h5.7c0.3,0,0.6,0.3,0.6,0.6l0,0c0,2.6,1,4,2.8,4c0.3,0,0.6,0.3,0.5,0.6C23.8,30.4,23.5,30.6,23.2,30.6L23.2,30.6z M13.5,29.5h6.9
	c-0.8-1-1.2-2.2-1.2-3.4h-4.6C14.7,27.3,14.3,28.5,13.5,29.5L13.5,29.5z"/>
</svg>
