<svg xmlns="http://www.w3.org/2000/svg" width="38.849" height="46.257" viewBox="0 0 38.849 46.257"><g transform="translate(-40.994)"><path d="M79.843,29.815a4.525,4.525,0,0,0-3.614-4.426V20.509A1.355,1.355,0,0,0,74.4,19.24l-2.587.97A15.8,15.8,0,0,0,65.786,16.3a9.035,9.035,0,1,0-10.735,0,15.8,15.8,0,0,0-6.026,3.912l-2.587-.97a1.355,1.355,0,0,0-1.831,1.269v4.879a4.518,4.518,0,0,0,0,8.853v5.241a1.355,1.355,0,0,0,.879,1.269l14.456,5.421a1.371,1.371,0,0,0,.952,0L75.35,40.751a1.355,1.355,0,0,0,.879-1.269V34.241A4.525,4.525,0,0,0,79.843,29.815ZM54.094,9.035a6.324,6.324,0,1,1,6.324,6.324A6.331,6.331,0,0,1,54.094,9.035Zm6.324,9.035a13.08,13.08,0,0,1,8.574,3.2l-8.574,3.215-8.574-3.215A13.08,13.08,0,0,1,60.419,18.069ZM43.7,29.815a1.809,1.809,0,0,1,1.807-1.807h.9v3.614h-.9A1.809,1.809,0,0,1,43.7,29.815Zm3.614,4.472a2.263,2.263,0,0,0,1.807-2.213V27.556a2.263,2.263,0,0,0-1.807-2.213V22.464l11.745,4.4V42.947l-11.745-4.4Zm14.456,8.661V26.869l11.745-4.4v2.878a2.263,2.263,0,0,0-1.807,2.213v4.517a2.263,2.263,0,0,0,1.807,2.213v4.256ZM75.326,31.622h-.9V28.008h.9a1.807,1.807,0,0,1,0,3.614Z" fill="#fff"/></g></svg>