<?xml version="1.0" encoding="utf-8"?>
<!-- Generator: Adobe Illustrator 22.1.0, SVG Export Plug-In . SVG Version: 6.00 Build 0)  -->
<svg version="1.1" id="Layer_1" xmlns="http://www.w3.org/2000/svg" xmlns:xlink="http://www.w3.org/1999/xlink" x="0px" y="0px"
	 viewBox="0 0 38.8 46.3" style="enable-background:new 0 0 38.8 46.3;" xml:space="preserve">
<style type="text/css">
	.st0{fill:#171F32;}
</style>
<g transform="translate(-40.994)">
	<path class="st0" d="M79.8,29.8c0-2.1-1.5-4-3.6-4.4v-4.9c0-0.7-0.6-1.4-1.4-1.4c-0.2,0-0.3,0-0.5,0.1l-2.6,1
		c-1.7-1.7-3.7-3.1-6-3.9c4-3,4.9-8.6,1.9-12.6c-3-4-8.6-4.9-12.6-1.9s-4.9,8.6-1.9,12.6c0.5,0.7,1.2,1.4,1.9,1.9
		c-2.3,0.8-4.3,2.2-6,3.9l-2.6-1C45.7,19,45,19.3,44.7,20c-0.1,0.2-0.1,0.3-0.1,0.5v4.9c-2.4,0.5-4,2.9-3.5,5.3
		c0.4,1.8,1.7,3.2,3.5,3.5v5.2c0,0.6,0.4,1.1,0.9,1.3l14.5,5.4c0.3,0.1,0.6,0.1,1,0l14.5-5.4c0.5-0.2,0.9-0.7,0.9-1.3v-5.2
		C78.3,33.8,79.8,32,79.8,29.8z M54.1,9c0-3.5,2.8-6.3,6.3-6.3c3.5,0,6.3,2.8,6.3,6.3s-2.8,6.3-6.3,6.3C56.9,15.4,54.1,12.5,54.1,9z
		 M60.4,18.1c3.2,0,6.2,1.1,8.6,3.2l-8.6,3.2l-8.6-3.2C54.2,19.2,57.3,18.1,60.4,18.1L60.4,18.1z M43.7,29.8c0-1,0.8-1.8,1.8-1.8
		h0.9v3.6h-0.9C44.5,31.6,43.7,30.8,43.7,29.8z M47.3,34.3c1.1-0.2,1.8-1.1,1.8-2.2v-4.5c0-1.1-0.8-2-1.8-2.2v-2.9l11.7,4.4v16.1
		l-11.7-4.4V34.3z M61.8,42.9V26.9l11.7-4.4v2.9c-1.1,0.2-1.8,1.1-1.8,2.2v4.5c0,1.1,0.8,2,1.8,2.2v4.3L61.8,42.9z M75.3,31.6h-0.9
		V28h0.9c1,0,1.8,0.8,1.8,1.8C77.1,30.8,76.3,31.6,75.3,31.6z"/>
</g>
</svg>
