<svg xmlns="http://www.w3.org/2000/svg" width="13.127" height="20.582" viewBox="0 0 13.127 20.582">
  <g id="rupee-indian" transform="translate(-72.806)">
    <path id="Path_182" data-name="Path 182" d="M85.8,4.663a.455.455,0,0,0-.336-.131h-2.5a5.06,5.06,0,0,0-.936-2.1h3.406a.449.449,0,0,0,.467-.468V.468A.45.45,0,0,0,85.436,0H73.274a.45.45,0,0,0-.468.468V2.412a.474.474,0,0,0,.468.468h2.12q3.084,0,3.917,1.652H73.274A.45.45,0,0,0,72.806,5V6.49a.45.45,0,0,0,.468.468h6.242a2.856,2.856,0,0,1-1.5,1.827,6.6,6.6,0,0,1-3.106.629H73.274a.474.474,0,0,0-.468.468v1.857a.437.437,0,0,0,.131.322q2.807,2.982,7.28,8.347a.431.431,0,0,0,.366.175h2.85a.424.424,0,0,0,.424-.263.4.4,0,0,0-.059-.5q-4.268-5.233-6.709-7.835a7.414,7.414,0,0,0,4.035-1.608,5.465,5.465,0,0,0,1.886-3.421h2.456a.45.45,0,0,0,.468-.468V5A.455.455,0,0,0,85.8,4.663Z" transform="translate(0 0)" fill="#30c940"/>
  </g>
</svg>
