<svg xmlns="http://www.w3.org/2000/svg" width="44" height="43" viewBox="0 0 44 43">
  <g id="Group_283" data-name="Group 283" transform="translate(-829 -769)">
    <rect id="Rectangle_483" data-name="Rectangle 483" width="44" height="43" transform="translate(829 769)" fill="#fff"/>
    <g id="apple-developer-brandmark" transform="translate(837 773)">
      <g id="XMLID_5_">
        <path id="XMLID_14_" d="M24.682,5.617A7.879,7.879,0,0,0,26.495,0a7.813,7.813,0,0,0-5.179,2.681,7.376,7.376,0,0,0-1.857,5.4,6.519,6.519,0,0,0,5.223-2.462" transform="translate(-5.278)"/>
        <path id="XMLID_6_" d="M21.7,11.323c-2.885-.172-5.337,1.637-6.715,1.637s-3.488-1.551-5.769-1.509A8.507,8.507,0,0,0,1.98,15.844c-3.1,5.342-.818,13.267,2.2,17.618C5.64,35.615,7.4,37.985,9.729,37.9c2.2-.086,3.057-1.422,5.727-1.422S18.9,37.9,21.223,37.857c2.411-.043,3.918-2.154,5.382-4.308a19.122,19.122,0,0,0,2.41-4.953,7.823,7.823,0,0,1-4.692-7.108,7.974,7.974,0,0,1,3.788-6.677A8.247,8.247,0,0,0,21.7,11.323" transform="translate(-0.502 -2.856)"/>
      </g>
    </g>
  </g>
</svg>
