<svg xmlns="http://www.w3.org/2000/svg" width="1536.586" height="781.282" viewBox="0 0 1536.586 781.282"><g transform="translate(-1469.732 -4372.062) rotate(-19)"><rect width="950" height="71" rx="35.5" transform="translate(213 5063)" fill="rgba(15,152,166,0.1)"/><rect width="950" height="71" rx="35.5" transform="translate(-121 5162)" fill="rgba(15,152,166,0.1)"/><rect width="950" height="71" rx="35.5" transform="translate(309 5261)" fill="rgba(15,152,166,0.1)"/><rect width="950" height="71" rx="35.5" transform="translate(49 5360)" fill="rgba(15,152,166,0.1)"/><circle cx="35.5" cy="35.5" r="35.5" transform="translate(1204 5063)" fill="rgba(15,152,166,0.1)"/><circle cx="35.5" cy="35.5" r="35.5" transform="translate(127 5063)" fill="rgba(15,152,166,0.1)"/><circle cx="35.5" cy="35.5" r="35.5" transform="translate(854 5162)" fill="rgba(15,152,166,0.1)"/><circle cx="35.5" cy="35.5" r="35.5" transform="translate(-223 5162)" fill="rgba(15,152,166,0.1)"/><circle cx="35.5" cy="35.5" r="35.5" transform="translate(1275 5254)" fill="rgba(15,152,166,0.1)"/><circle cx="35.5" cy="35.5" r="35.5" transform="translate(198 5254)" fill="rgba(15,152,166,0.1)"/><circle cx="35.5" cy="35.5" r="35.5" transform="translate(1021 5360)" fill="rgba(15,152,166,0.1)"/><circle cx="35.5" cy="35.5" r="35.5" transform="translate(-56 5360)" fill="rgba(15,152,166,0.1)"/></g></svg>