<svg xmlns="http://www.w3.org/2000/svg" width="60" height="59" viewBox="0 0 60 59">
  <g id="tw-oc" transform="translate(-1073 2528)">
    <ellipse id="Ellipse_79" data-name="Ellipse 79" cx="30" cy="29.5" rx="30" ry="29.5" transform="translate(1073 -2528)" fill="#00acee"/>
    <path id="iconfinder_twitter_317720" d="M31.993,6.077a13.028,13.028,0,0,1-3.77,1.033A6.588,6.588,0,0,0,31.11,3.48a13.144,13.144,0,0,1-4.168,1.592,6.572,6.572,0,0,0-11.186,5.987A18.637,18.637,0,0,1,2.227,4.2a6.574,6.574,0,0,0,2.031,8.764,6.544,6.544,0,0,1-2.972-.821c0,.027,0,.056,0,.082A6.568,6.568,0,0,0,6.55,18.663a6.594,6.594,0,0,1-2.963.113,6.572,6.572,0,0,0,6.13,4.558,13.166,13.166,0,0,1-8.15,2.811A13.265,13.265,0,0,1,0,26.053,18.592,18.592,0,0,0,10.062,29c12.072,0,18.675-10,18.675-18.675,0-.284-.008-.568-.02-.85A13.315,13.315,0,0,0,31.993,6.077Z" transform="translate(1089.999 -2513)" fill="#fff"/>
  </g>
</svg>
