<svg xmlns="http://www.w3.org/2000/svg" width="60" height="59" viewBox="0 0 60 59"><path d="M174,59a30.247,30.247,0,0,1-11.677-2.318,29.934,29.934,0,0,1-9.536-6.322,29.381,29.381,0,0,1-6.429-9.377,29.143,29.143,0,0,1,0-22.965,29.379,29.379,0,0,1,6.429-9.377,29.933,29.933,0,0,1,9.536-6.322,30.57,30.57,0,0,1,23.355,0,29.933,29.933,0,0,1,9.536,6.322,29.379,29.379,0,0,1,6.429,9.377,29.142,29.142,0,0,1,0,22.965,29.38,29.38,0,0,1-6.429,9.377,29.934,29.934,0,0,1-9.536,6.322A30.249,30.249,0,0,1,174,59ZM161,41.053h0A18.627,18.627,0,0,0,171.061,44a18.911,18.911,0,0,0,8.011-1.7,17.669,17.669,0,0,0,5.854-4.387,19.263,19.263,0,0,0,3.59-6.013,18.983,18.983,0,0,0,1.22-6.577c0-.254-.006-.524-.02-.851a13.25,13.25,0,0,0,3.276-3.4,13.068,13.068,0,0,1-3.77,1.033,6.574,6.574,0,0,0,2.886-3.631,13.1,13.1,0,0,1-4.168,1.592,6.572,6.572,0,0,0-11.186,5.987,18.479,18.479,0,0,1-7.6-2.042,18.631,18.631,0,0,1-5.933-4.816,6.576,6.576,0,0,0,2.031,8.764,6.579,6.579,0,0,1-2.972-.821c0,.027,0,.056,0,.082a6.58,6.58,0,0,0,5.265,6.437,6.59,6.59,0,0,1-2.964.113,6.562,6.562,0,0,0,6.13,4.558,13.084,13.084,0,0,1-8.149,2.812A13.271,13.271,0,0,1,161,41.053Z" transform="translate(-144)" fill="#fff"/></svg>