<svg xmlns="http://www.w3.org/2000/svg" xmlns:xlink="http://www.w3.org/1999/xlink" viewBox="0 0 42.21 34"><defs><style>.cls-1{fill:url(#linear-gradient);}</style><linearGradient id="linear-gradient" x1="6.45" y1="422.22" x2="36.91" y2="391.76" gradientTransform="matrix(1, 0, 0, -1, 0, 423.53)" gradientUnits="userSpaceOnUse"><stop offset="0" stop-color="#2aa4f4"/><stop offset="1" stop-color="#007ad9"/></linearGradient></defs><g id="Layer_2" data-name="Layer 2"><g id="Layer_1-2" data-name="Layer 1"><path class="cls-1" d="M42.21,4a17.23,17.23,0,0,1-5,1.36A8.59,8.59,0,0,0,41,.62a17.09,17.09,0,0,1-5.5,2.09,8.67,8.67,0,0,0-15,5.87,9.06,9.06,0,0,0,.22,2A24.67,24.67,0,0,1,3,1.57,8.45,8.45,0,0,0,1.77,5.89,8.56,8.56,0,0,0,5.62,13,8.66,8.66,0,0,1,1.7,12v.1a8.6,8.6,0,0,0,6.94,8.42,8.52,8.52,0,0,1-2.27.31,8.85,8.85,0,0,1-1.64-.16,8.7,8.7,0,0,0,8.09,6A17.54,17.54,0,0,1,2.07,30.27,17.58,17.58,0,0,1,0,30.15,24.75,24.75,0,0,0,13.28,34C29.2,34,37.92,20.92,37.92,9.57c0-.37,0-.74,0-1.1A16.93,16.93,0,0,0,42.21,4"/></g></g></svg>