<svg xmlns="http://www.w3.org/2000/svg" width="60" height="59" viewBox="0 0 60 59">
  <g id="wa-oc" transform="translate(-1301 2528)">
    <ellipse id="Ellipse_81" data-name="Ellipse 81" cx="30" cy="29.5" rx="30" ry="29.5" transform="translate(1301 -2528)" fill="#075e54"/>
    <g id="Page-1" transform="translate(1314.844 -2514.689)">
      <path id="whatsup" d="M16.463,0A15.286,15.286,0,0,0,3.372,23.177l-2.758,8.2,8.462-2.709A15.285,15.285,0,1,0,16.463,0Zm0,28.133a12.774,12.774,0,0,1-7.07-2.125L4.455,27.591l1.6-4.772a12.845,12.845,0,1,1,10.4,5.316ZM12.878,8.964c-.248-.6-.437-.617-.82-.635-.131-.006-.273-.012-.429-.012a1.861,1.861,0,0,0-1.311.46A4.1,4.1,0,0,0,9.006,11.9a7.289,7.289,0,0,0,1.53,3.875c.188.25,2.618,4.088,6.4,5.655,2.952,1.223,3.828,1.114,4.5.967a3.64,3.64,0,0,0,2.523-1.81,3.13,3.13,0,0,0,.219-1.781c-.094-.156-.343-.25-.718-.438s-2.217-1.094-2.56-1.218a.723.723,0,0,0-.925.278,15.418,15.418,0,0,1-1.005,1.331.807.807,0,0,1-.91.141,9.524,9.524,0,0,1-3.013-1.859,11.284,11.284,0,0,1-2.084-2.594c-.219-.375-.019-.6.149-.8.192-.233.369-.4.557-.618a2.506,2.506,0,0,0,.417-.586.768.768,0,0,0-.053-.7C13.939,11.557,13.189,9.714,12.878,8.964Z" transform="translate(0 0)" fill="#fff" fill-rule="evenodd"/>
    </g>
  </g>
</svg>
