<svg xmlns="http://www.w3.org/2000/svg" width="60" height="59" viewBox="0 0 60 59"><path d="M174,59a30.247,30.247,0,0,1-11.677-2.318,29.934,29.934,0,0,1-9.536-6.322,29.381,29.381,0,0,1-6.429-9.377,29.143,29.143,0,0,1,0-22.965,29.379,29.379,0,0,1,6.429-9.377,29.933,29.933,0,0,1,9.536-6.322,30.57,30.57,0,0,1,23.355,0,29.933,29.933,0,0,1,9.536,6.322,29.379,29.379,0,0,1,6.429,9.377,29.142,29.142,0,0,1,0,22.965,29.38,29.38,0,0,1-6.429,9.377,29.934,29.934,0,0,1-9.536,6.322A30.249,30.249,0,0,1,174,59Zm.307-45.688a15.286,15.286,0,0,0-13.091,23.175l-2.758,8.2,8.462-2.71a15.285,15.285,0,1,0,7.388-28.665Zm0,28.132a12.776,12.776,0,0,1-7.07-2.125L162.3,40.9l1.6-4.772a12.845,12.845,0,1,1,10.4,5.315Zm-4.834-19.818a1.858,1.858,0,0,0-1.311.46l-.036.036a4.106,4.106,0,0,0-1.276,3.088,7.126,7.126,0,0,0,1.528,3.872c.015.02.038.054.073.1a15.193,15.193,0,0,0,6.329,5.554,10.968,10.968,0,0,0,3.765,1.054,3.3,3.3,0,0,0,.737-.087A3.651,3.651,0,0,0,181.8,33.9a3.125,3.125,0,0,0,.219-1.78,1.2,1.2,0,0,0-.513-.337l-.205-.1c-.353-.177-2.21-1.092-2.56-1.219a.961.961,0,0,0-.33-.065.715.715,0,0,0-.6.343l-.222.31a10.587,10.587,0,0,1-.784,1.021.725.725,0,0,1-.536.219.968.968,0,0,1-.374-.078l-.134-.055a9.384,9.384,0,0,1-2.879-1.8,11.152,11.152,0,0,1-2.083-2.594.6.6,0,0,1,.135-.786l.014-.017c.1-.126.206-.235.3-.34.082-.088.167-.179.253-.279l.028-.033a2.377,2.377,0,0,0,.388-.552.751.751,0,0,0-.053-.7c-.065-.13-.445-1.056-.781-1.873l-.011-.026c-.141-.342-.271-.66-.363-.882-.252-.607-.454-.617-.82-.635C169.781,21.633,169.636,21.627,169.473,21.627Z" transform="translate(-144)" fill="#fff"/></svg>