<svg xmlns="http://www.w3.org/2000/svg" viewBox="0 0 40.13 40.3"><defs><style>.cls-1,.cls-4{fill:#fff;}.cls-2{fill:#cfd8dc;}.cls-3{fill:#40c351;}.cls-4{fill-rule:evenodd;}</style></defs><g id="Layer_2" data-name="Layer 2"><g id="Layer_1-2" data-name="Layer 1"><path class="cls-1" d="M1,39.3l2.69-9.83A19,19,0,1,1,20.15,39h0a18.84,18.84,0,0,1-9.07-2.31Z"/><path class="cls-1" d="M1,39.8a.49.49,0,0,1-.48-.63l2.64-9.63A19.44,19.44,0,1,1,11,37.2L1.13,39.79Z"/><path class="cls-2" d="M20.15,1a19,19,0,0,1,0,38h0a18.84,18.84,0,0,1-9.07-2.31L1,39.3l2.69-9.83A19,19,0,0,1,20.15,1m0-1h0A20,20,0,0,0,2.62,29.6L0,39a1,1,0,0,0,1.21,1.23l9.69-2.54A20,20,0,1,0,20.15,0Z"/><path class="cls-3" d="M31.31,9A15.64,15.64,0,0,0,20.15,4.37,15.77,15.77,0,0,0,6.78,28.54l.37.6L5.56,35l6-1.57.58.34a15.71,15.71,0,0,0,8,2.2h0A15.78,15.78,0,0,0,31.31,9Z"/><path class="cls-4" d="M15.4,12c-.35-.79-.73-.8-1.07-.82h-.91a1.75,1.75,0,0,0-1.26.59,5.33,5.33,0,0,0-1.66,4,9.34,9.34,0,0,0,1.93,4.91c.24.31,3.29,5.26,8.11,7.16,4,1.58,4.82,1.26,5.69,1.18a4.73,4.73,0,0,0,3.2-2.25,3.94,3.94,0,0,0,.28-2.26c-.12-.19-.43-.31-.91-.55S26,22.57,25.56,22.41s-.75-.24-1.07.24S23.27,24.19,23,24.5s-.55.36-1,.12a12.67,12.67,0,0,1-3.81-2.35A14.06,14.06,0,0,1,15.51,19c-.28-.47,0-.73.21-1s.47-.56.71-.83a3.57,3.57,0,0,0,.47-.8.86.86,0,0,0,0-.83C16.74,15.33,15.82,13,15.4,12Z"/></g></g></svg>