<svg xmlns="http://www.w3.org/2000/svg" width="60" height="59" viewBox="0 0 60 59">
  <g id="yt-oc" transform="translate(-1415 2528)">
    <ellipse id="Ellipse_81" data-name="Ellipse 81" cx="30" cy="29.5" rx="30" ry="29.5" transform="translate(1415 -2528)" fill="red"/>
    <g id="youtube-logotype" transform="translate(1423.933 -2515)">
      <g id="Group_115" data-name="Group 115" transform="translate(7.067)">
        <path id="Path_138" data-name="Path 138" d="M34.444,40.449a3.519,3.519,0,0,0-3.012-2.737A93.6,93.6,0,0,0,21,37.326a93.626,93.626,0,0,0-10.433.386,3.518,3.518,0,0,0-3.01,2.737,29.829,29.829,0,0,0-.491,6.585,29.823,29.823,0,0,0,.486,6.585,3.518,3.518,0,0,0,3.011,2.737A93.6,93.6,0,0,0,21,56.743a93.537,93.537,0,0,0,10.433-.386,3.519,3.519,0,0,0,3.011-2.737,29.846,29.846,0,0,0,.488-6.585A29.867,29.867,0,0,0,34.444,40.449ZM15.013,42.084H13V52.8H11.124V42.084H9.144V40.329h5.869ZM20.1,52.8H18.416V51.785a2.7,2.7,0,0,1-1.924,1.141,1.033,1.033,0,0,1-1.085-.69,4.742,4.742,0,0,1-.148-1.382V43.507h1.683v6.841a5.242,5.242,0,0,0,.015.655c.04.261.168.394.394.394.338,0,.691-.26,1.064-.788v-7.1H20.1V52.8Zm6.4-2.789a7.422,7.422,0,0,1-.17,1.872,1.333,1.333,0,0,1-1.345,1.044,2.294,2.294,0,0,1-1.74-1.028v.9H21.558V40.329h1.683V44.4a2.28,2.28,0,0,1,1.74-1.008,1.332,1.332,0,0,1,1.345,1.048,7.135,7.135,0,0,1,.17,1.868Zm6.354-1.55H29.483v1.647c0,.86.281,1.29.86,1.29a.723.723,0,0,0,.752-.675,10.593,10.593,0,0,0,.038-1.141H32.85v.246c0,.543-.021.916-.036,1.085a2.4,2.4,0,0,1-.393,1.009,2.33,2.33,0,0,1-2.036,1.007,2.411,2.411,0,0,1-2.038-.951,3.6,3.6,0,0,1-.54-2.185V46.536a3.616,3.616,0,0,1,.52-2.189,2.393,2.393,0,0,1,2.016-.952,2.338,2.338,0,0,1,1.986.952,3.652,3.652,0,0,1,.521,2.189V48.46Z" transform="translate(-7.067 -23.74)" fill="#fff"/>
        <path id="Path_139" data-name="Path 139" d="M69.5,58.163q-.844,0-.845,1.289v.86H70.34v-.86C70.34,58.593,70.059,58.163,69.5,58.163Z" transform="translate(-46.241 -36.994)" fill="#fff"/>
        <path id="Path_140" data-name="Path 140" d="M52.345,58.163a1.206,1.206,0,0,0-.84.409v5.663a1.2,1.2,0,0,0,.84.415c.486,0,.732-.415.732-1.254V59.431C53.077,58.593,52.83,58.163,52.345,58.163Z" transform="translate(-35.331 -36.994)" fill="#fff"/>
        <path id="Path_141" data-name="Path 141" d="M54.217,18.339a2.733,2.733,0,0,0,1.944-1.153V18.21h1.7V8.82h-1.7V16c-.377.533-.734.8-1.075.8-.228,0-.362-.135-.4-.4a3.946,3.946,0,0,1-.021-.661V8.82h-1.7v7.425a4.744,4.744,0,0,0,.151,1.4A1.045,1.045,0,0,0,54.217,18.339Z" transform="translate(-36.263 -5.61)" fill="#fff"/>
        <path id="Path_142" data-name="Path 142" d="M19.721,7.5v5.1h1.887V7.5L23.877,0H21.969L20.682,4.948,19.342,0H17.357c.4,1.168.812,2.342,1.209,3.511A31.038,31.038,0,0,1,19.721,7.5Z" transform="translate(-13.612)" fill="#fff"/>
        <path id="Path_143" data-name="Path 143" d="M37.827,18.14a2.319,2.319,0,0,0,1.985-.961,3.673,3.673,0,0,0,.528-2.208V11.683a3.68,3.68,0,0,0-.528-2.212,2.523,2.523,0,0,0-3.966,0,3.649,3.649,0,0,0-.532,2.212v3.288a3.64,3.64,0,0,0,.532,2.208A2.319,2.319,0,0,0,37.827,18.14Zm-.812-6.8c0-.869.264-1.3.812-1.3s.811.433.811,1.3v3.95c0,.869-.263,1.3-.811,1.3s-.812-.435-.812-1.3Z" transform="translate(-25.033 -5.411)" fill="#fff"/>
      </g>
    </g>
  </g>
</svg>
