<?xml version="1.0" encoding="utf-8"?>
<!-- Generator: Adobe Illustrator 22.1.0, SVG Export Plug-In . SVG Version: 6.00 Build 0)  -->
<svg version="1.1" id="Layer_1" xmlns="http://www.w3.org/2000/svg" xmlns:xlink="http://www.w3.org/1999/xlink" x="0px" y="0px"
	 viewBox="0 0 803 985" style="enable-background:new 0 0 803 985;" xml:space="preserve">
<style type="text/css">
	.st0{fill:#FFFFFF;stroke:#221E20;stroke-width:0.5;}
	.st1{fill:none;stroke:#FFFFFF;stroke-width:0.5;}
	.st2{fill:none;stroke:#FEFEFE;stroke-width:0.5;}
</style>
<title>Apple Logo White</title>
<g>
	<title>Layer 1</title>
	<path id="svg_1" class="st0" d="M776.2,333.8l0.3,0.2v1v1l-0.3,0.2l-0.2,0.3l-17.8,13.3c-11.8,8.8-22.2,17.9-31.2,27.2
		s-17,19.5-24,30.5s-12.7,22-17,33s-7.7,22.2-10,33.5s-3.5,27-3.5,47s1.3,36.3,4,49s6.5,25,11.5,37s11,23.3,18,34s14.3,20,22,28
		s15.6,15.4,23.8,22.2c8.1,6.9,17.5,13.5,28.2,19.8s16.5,9.7,17.5,10l1.5,0.5l1,0.5l1,0.5l1,0.3l1,0.2v1v1l-13.2,33
		c-8.9,22-18.1,41.7-27.6,59.2c-9.5,17.5-20.5,35.5-33.2,53.8s-24.1,33.6-34.2,45.8c-10.2,12.1-19.5,22.1-28,30
		c-8.5,7.8-17.3,14.4-26.3,19.7s-18,9.3-27,12s-14.8,4.2-17.5,4.5l-4,0.5l-1,0.3l-1,0.2l-8-0.2c-5.3-0.2-13.3-1.3-24-3.3
		s-26.8-6.8-48.5-14.5c-21.7-7.7-38.7-12.8-51-15.5s-25-4-38-4s-24.7,1-35,3s-25.3,6.5-45,13.5s-35.7,12.2-48,15.5l-18.5,5l-4,0.5
		l-4,0.5v0.3v0.2h-10h-10v-0.2v-0.3l-3.5-0.5l-3.5-0.5l-2-0.5c-1.3-0.3-3.7-1-7-2s-9.2-3.5-17.5-7.5s-17.3-9.8-27-17.5
		s-18.7-16-27-25s-19.4-22.7-33.3-41.2c-13.8-18.5-25.6-35.7-35.4-51.6c-9.9-15.8-19.4-33.3-28.6-52.4C52.1,766.6,43.7,746.3,36,725
		s-14.2-43-19.5-65s-9.4-44.7-12.3-68L0,557v-22.5V512h0.2h0.3l3-26c2-17.3,5-33.7,9-49s8.8-29.5,14.5-42.5S39.2,369,46.5,357
		s14.8-22.4,22.3-31.2c7.5-8.9,15.4-17.1,23.7-24.8s18.8-15.5,31.5-23.5c12.7-8,25.5-14.7,38.5-20c13-5.3,26-9.3,39-12
		s27.2-4,42.5-4s31,2,47,6s36.2,10.3,60.5,19s38.7,13.5,43,14.5s9.5,1.3,15.5,1s26.2-6.3,60.5-18c34.3-11.7,58.2-18.8,71.5-21.5
		s27.5-4,42.5-4s30.8,1.7,47.5,5s31,7.3,43,12c12,4.7,23.3,10.1,33.8,16.3c10.5,6.1,20.2,13,29.2,20.7s17.2,15.8,24.5,24.5
		s11.4,13.6,12.3,14.8C775.6,332.9,776.1,333.6,776.2,333.8z"/>
	<path id="svg_2_3_" class="st1" d="M803,723l-1-0.2l-1-0.3l-1-0.5l-1-0.5l-1.5-0.5c-1-0.3-6.8-3.7-17.5-10s-20.1-12.9-28.2-19.8
		c-8.2-6.8-16.1-14.2-23.8-22.2s-15-17.3-22-28s-13-22-18-34s-8.8-24.3-11.5-37s-4-29-4-49s1.2-35.7,3.5-47s5.7-22.5,10-33.5
		s10-22,17-33s15-21.2,24-30.5s19.4-18.4,31.2-27.2l17.8-13.3l0.2-0.3l0.3-0.2v-1v-1l-0.3-0.2c-0.1-0.2-0.6-0.9-1.4-2
		c-0.9-1.2-5-6.1-12.3-14.8S747,300.2,738,292.5s-18.7-14.6-29.2-20.7c-10.5-6.2-21.8-11.6-33.8-16.3c-12-4.7-26.3-8.7-43-12
		s-32.5-5-47.5-5s-29.2,1.3-42.5,4s-37.2,9.8-71.5,21.5c-34.3,11.7-54.5,17.7-60.5,18s-11.2,0-15.5-1s-18.7-5.8-43-14.5
		s-44.5-15-60.5-19s-31.7-6-47-6s-29.5,1.3-42.5,4s-26,6.7-39,12c-13,5.3-25.8,12-38.5,20c-12.7,8-23.2,15.8-31.5,23.5
		s-16.2,15.9-23.7,24.8c-7.5,8.8-15,19.2-22.3,31.2S32.7,381.5,27,394.5S16.5,421.7,12.5,437s-7,31.7-9,49l-3,26H0.2H0"/>
	<path id="svg_2_1_" class="st1" d="M591,0v0.2c0,0.2-3.8,1-11.5,2.3s-17.7,4.2-30,8.5s-24,9.5-35,15.5s-21.3,12.7-31,20
		s-18.3,15.3-26,24c-7.7,8.7-14.8,17.8-21.5,27.5s-12.6,19.9-17.8,30.8C413.1,139.6,409,151,406,163s-4.7,25.7-5.2,41l-0.8,23
		l16.5-0.2c11-0.2,22.5-1.8,34.5-4.8s22.9-7.1,32.8-12.2c9.8-5.2,19.6-11.7,29.4-19.6c9.9-7.8,18.9-16.3,27-25.4
		c8.2-9.2,16-19.6,23.3-31.3c7.3-11.7,13.3-23,18-34s8.3-22,11-33s4.3-23,5-36s0.9-21.3,0.7-25L598,0"/>
	<path id="svg_3_1_" class="st1" d="M0,557l4.2,35c2.9,23.3,7,46,12.3,68s11.8,43.7,19.5,65s16.1,41.6,25.2,60.8
		c9.2,19.1,18.7,36.6,28.6,52.4c9.8,15.9,21.6,33.1,35.4,51.6c13.9,18.5,25,32.2,33.3,41.2s17.3,17.3,27,25s18.7,13.5,27,17.5
		s14.2,6.5,17.5,7.5s5.7,1.7,7,2l2,0.5l3.5,0.5l3.5,0.5v0.3v0.2"/>
	<path id="svg_4" class="st0" d="M591,0.2V0h3.5h3.5l0.2,5.5c0.2,3.7,0,12-0.7,25s-2.3,25-5,36s-6.3,22-11,33s-10.7,22.3-18,34
		c-7.3,11.7-15.1,22.1-23.3,31.3c-8.1,9.1-17.1,17.6-27,25.4c-9.8,7.9-19.6,14.4-29.4,19.6c-9.9,5.1-20.8,9.2-32.8,12.2
		s-23.5,4.6-34.5,4.8L400,227l0.8-23c0.5-15.3,2.2-29,5.2-41s7.1-23.4,12.2-34.2c5.2-10.9,11.1-21.1,17.8-30.8s13.8-18.8,21.5-27.5
		c7.7-8.7,16.3-16.7,26-24s20-14,31-20s22.7-11.2,35-15.5s22.3-7.2,30-8.5S591,0.4,591,0.2z"/>
	<path id="svg_5_1_" class="st1" d="M590,985v-0.5V984l1-0.2l1-0.3l4-0.5c2.7-0.3,8.5-1.8,17.5-4.5s18-6.7,27-12
		s17.8-11.9,26.3-19.7c8.5-7.9,17.8-17.9,28-30c10.1-12.2,21.5-27.5,34.2-45.8s23.7-36.3,33.2-53.8c9.5-17.5,18.7-37.2,27.6-59.2
		l13.2-33"/>
	<path id="svg_6_1_" class="st2" d="M266,985v-0.2v-0.3l4-0.5l4-0.5l18.5-5c12.3-3.3,28.3-8.5,48-15.5s34.7-11.5,45-13.5s22-3,35-3
		s25.7,1.3,38,4s29.3,7.8,51,15.5c21.7,7.7,37.8,12.5,48.5,14.5s18.7,3.1,24,3.3l8,0.2v0.5v0.5"/>
</g>
</svg>
