<?xml version="1.0" encoding="utf-8"?>
<!-- Generator: Adobe Illustrator 22.1.0, SVG Export Plug-In . SVG Version: 6.00 Build 0)  -->
<svg version="1.1" id="Layer_1" xmlns="http://www.w3.org/2000/svg" xmlns:xlink="http://www.w3.org/1999/xlink" x="0px" y="0px"
	 viewBox="0 0 38.9 27.9" style="enable-background:new 0 0 38.9 27.9;" xml:space="preserve">
<style type="text/css">
	.st0{fill:#171F32;}
</style>
<g transform="translate(0 -58.303)">
	<g transform="translate(0 58.303)">
		<path class="st0" d="M38.1,2.3h-2.6V1.4c0-0.3-0.2-0.7-0.5-0.8C33.2,0.2,31.4,0,29.6,0c-3,0-7.1,0.7-10.2,3.8
			C16.4,0.6,12.3,0,9.3,0C7.4,0,5.6,0.2,3.8,0.7C3.5,0.8,3.3,1.1,3.3,1.4v0.9H0.8C0.3,2.3,0,2.7,0,3.1v24.1c0,0.4,0.3,0.8,0.8,0.8
			c0.1,0,0.3,0,0.4-0.1c0.1,0,7.6-4.2,18.1-1.5h0.2c0.1,0,0.1,0,0.2,0c10.5-2.7,18.1,1.4,18.1,1.5c0.4,0.2,0.8,0.1,1-0.3
			c0.1-0.1,0.1-0.2,0.1-0.4V3.1C38.9,2.7,38.5,2.3,38.1,2.3C38.1,2.3,38.1,2.3,38.1,2.3z M1.5,25.9V3.8h1.8v18.9
			c0,0.4,0.3,0.8,0.7,0.8c0,0,0.1,0,0.1,0c1.6-0.2,3.1-0.4,4.7-0.4c2.2,0,4.4,0.3,6.4,1C10.6,23.5,5.9,24.1,1.5,25.9z M8.9,21.6
			c-1.4,0-2.7,0.1-4.1,0.3V2c1.5-0.3,3-0.5,4.5-0.5c2.8,0,6.7,0.6,9.4,3.7l0,18.8C17.1,23,14.1,21.6,8.9,21.6z M20.2,5.2
			c2.7-3,6.6-3.7,9.4-3.7c1.5,0,3,0.2,4.5,0.5v19.8c-1.4-0.2-2.7-0.3-4.1-0.3c-5.1,0-8.2,1.4-9.8,2.4L20.2,5.2z M37.4,25.9
			c-4.4-1.8-9.1-2.4-13.8-1.9c2.1-0.7,4.3-1,6.5-1c1.6,0,3.2,0.1,4.7,0.4c0.4,0.1,0.8-0.2,0.9-0.6c0,0,0-0.1,0-0.1V3.8h1.8
			L37.4,25.9z"/>
	</g>
</g>
</svg>
