<?xml version="1.0" encoding="utf-8"?>
<!-- Generator: Adobe Illustrator 22.1.0, SVG Export Plug-In . SVG Version: 6.00 Build 0)  -->
<svg version="1.1" id="Layer_1" xmlns="http://www.w3.org/2000/svg" xmlns:xlink="http://www.w3.org/1999/xlink" x="0px" y="0px"
	 viewBox="0 0 24 24" style="enable-background:new 0 0 24 24;" xml:space="preserve">
<style type="text/css">
	.st0{fill:none;}
	.st1{fill:#224124;}
</style>
<path class="st0" d="M0,0h24v24H0V0z"/>
<path class="st1" d="M22,19h-6v-4h-2.7c-1.1,2.4-3.6,4-6.3,4c-3.9,0-7-3.1-7-7s3.1-7,7-7c2.7,0,5.2,1.6,6.3,4H24v6h-2V19z M18,17h2
	v-4h2v-2H11.9l-0.2-0.7C11,8.3,9.1,7,7,7c-2.8,0-5,2.2-5,5s2.2,5,5,5c2.1,0,4-1.3,4.7-3.3l0.2-0.7H18V17z M7,15c-1.7,0-3-1.4-3-3
	s1.3-3,3-3s3,1.4,3,3S8.6,15,7,15z M7,11c-0.6,0-1,0.4-1,1s0.4,1,1,1s1-0.4,1-1S7.6,11,7,11z"/>
</svg>
