<svg xmlns="http://www.w3.org/2000/svg" width="39.153" height="39.153" viewBox="0 0 39.153 39.153">
  <g id="taxes" transform="translate(-1 -1)">
    <path id="Path_37" data-name="Path 37" d="M50.895,12.789A1.895,1.895,0,1,0,49,10.895,1.9,1.9,0,0,0,50.895,12.789Zm0-2.526a.632.632,0,1,1-.632.632A.632.632,0,0,1,50.895,10.263Z" transform="translate(-17.688 -2.948)" fill="#171f32"/>
    <path id="Path_38" data-name="Path 38" d="M39.075,15.448,36.626,13l.632-.632L35.994,11.1l.4-.4a4.2,4.2,0,1,0-5.945-5.945l-.4.4L28.786,3.9l-.632.632-2.45-2.45a3.681,3.681,0,0,0-5.2,0L2.078,20.5a3.681,3.681,0,0,0,0,5.206l13.367,13.37a3.657,3.657,0,0,0,2.606,1.078,3.706,3.706,0,0,0,2.6-1.078L39.075,20.653a3.68,3.68,0,0,0,0-5.2Zm-9.026-8.5,1.295-1.295A2.941,2.941,0,1,1,35.5,9.81L34.208,11.1l1.263,1.263-2.9,2.9L25.89,8.578l2.9-2.9ZM20.577,29.788l-2.253-2.253L19.955,25.9l2.255,2.255Zm-1.263-9.581,2.27,2.27-1.631,1.636L17.681,21.84Zm.893-.893,1.633-1.633L24.1,19.946l-1.631,1.636Zm-3.419,3.419,2.273,2.273-1.631,1.636-2.276-2.276ZM23.1,27.262,20.846,25l1.631-1.636,2.26,2.26Zm2.526-2.526-2.261-2.261L25,20.839,27.262,23.1Zm2.526-2.526-5.422-5.422,2.9-2.9,5.422,5.422ZM21.84,15.895l-2.9-2.9,2.9-2.9,2.9,2.9Zm-3.789-2,2.9,2.9L11.736,26l-2.9-2.9ZM14.262,25.259l2.278,2.278-1.631,1.636-2.28-2.28Zm3.171,3.171,2.251,2.251-1,1-.632-.632-.632.632L15.8,30.065Zm.618,4.407,1,1h-2Zm2.526.74-1-1L32.837,19.314l-11-11L7.054,23.1l9.473,9.473-1,1L5.05,23.1,23.1,5.05l2.265,2.265L24.1,8.578l8.471,8.471,1.263-1.263L36.1,18.051ZM38.183,19.76,19.76,38.183a2.421,2.421,0,0,1-3.422,0L2.971,24.812a2.418,2.418,0,0,1,0-3.419L21.393,2.971a2.418,2.418,0,0,1,3.419,0l2.45,2.45-1,1L23.1,3.265,3.265,23.1l12,12h5.577L37.889,18.051l-3.158-3.158,1-1,2.45,2.45a2.418,2.418,0,0,1,0,3.419Z" fill="#171f32"/>
    <ellipse id="Ellipse_1" data-name="Ellipse 1" cx="0.5" cy="1" rx="0.5" ry="1" transform="translate(28.577 7.577)" fill="#171f32"/>
    <ellipse id="Ellipse_2" data-name="Ellipse 2" cx="1" cy="0.5" rx="1" ry="0.5" transform="translate(31.577 11.577)" fill="#171f32"/>
  </g>
</svg>
