<svg xmlns="http://www.w3.org/2000/svg" width="41" height="40" viewBox="0 0 41 40">
  <g id="Group_177" data-name="Group 177" transform="translate(-713 -8912)">
    <ellipse id="Ellipse_51" data-name="Ellipse 51" cx="20.5" cy="20" rx="20.5" ry="20" transform="translate(713 8912)" fill="#fff"/>
    <path id="iconfinder_twitter_317720" d="M21.69,5.086a8.832,8.832,0,0,1-2.556.7,4.466,4.466,0,0,0,1.957-2.461A8.911,8.911,0,0,1,18.266,4.4a4.455,4.455,0,0,0-7.584,4.059A12.636,12.636,0,0,1,1.51,3.814,4.457,4.457,0,0,0,2.887,9.756,4.436,4.436,0,0,1,.872,9.2c0,.018,0,.038,0,.056a4.453,4.453,0,0,0,3.569,4.364,4.47,4.47,0,0,1-2.009.077,4.455,4.455,0,0,0,4.156,3.09,8.926,8.926,0,0,1-5.525,1.906A8.993,8.993,0,0,1,0,18.629a12.6,12.6,0,0,0,6.821,2A12.575,12.575,0,0,0,19.483,7.966c0-.193-.005-.385-.014-.576A9.027,9.027,0,0,0,21.69,5.086Z" transform="translate(724.524 8921.203)" fill="#171f32"/>
  </g>
</svg>
