<svg xmlns="http://www.w3.org/2000/svg" width="43" height="42" viewBox="0 0 43 42">
  <g id="Group_179" data-name="Group 179" transform="translate(-941 -8912)">
    <ellipse id="Ellipse_53" data-name="Ellipse 53" cx="21.5" cy="21" rx="21.5" ry="21" transform="translate(941 8912)" fill="#fff"/>
    <g id="Page-1" transform="translate(951.291 8921.477)">
      <path id="whatsup" d="M11.9,0A10.882,10.882,0,0,0,2.577,16.5L.613,22.337l6.024-1.929A10.881,10.881,0,1,0,11.9,0Zm0,20.027a9.093,9.093,0,0,1-5.033-1.513L3.348,19.641l1.142-3.4A9.144,9.144,0,1,1,11.9,20.028ZM9.344,6.381c-.176-.425-.311-.439-.583-.452-.093,0-.195-.009-.305-.009a1.325,1.325,0,0,0-.934.327,2.919,2.919,0,0,0-.934,2.224A5.189,5.189,0,0,0,7.677,11.23a11.435,11.435,0,0,0,4.556,4.026c2.1.87,2.725.793,3.2.688a2.591,2.591,0,0,0,1.8-1.289,2.228,2.228,0,0,0,.156-1.268c-.067-.111-.245-.178-.511-.312s-1.578-.778-1.823-.867a.515.515,0,0,0-.659.2,10.976,10.976,0,0,1-.716.947.575.575,0,0,1-.648.1,6.78,6.78,0,0,1-2.145-1.324A8.032,8.032,0,0,1,9.4,10.284c-.156-.267-.014-.426.106-.571.137-.166.263-.285.4-.44a1.784,1.784,0,0,0,.3-.417.547.547,0,0,0-.038-.495C10.1,8.228,9.566,6.916,9.344,6.381Z" transform="translate(-0.613 -0.002)" fill="#171f32" fill-rule="evenodd"/>
    </g>
  </g>
</svg>
